<?xml version="1.0" encoding="utf-8"?>
<!-- Generator: Adobe Illustrator 16.0.0, SVG Export Plug-In . SVG Version: 6.00 Build 0)  -->
<!DOCTYPE svg PUBLIC "-//W3C//DTD SVG 1.1//EN" "http://www.w3.org/Graphics/SVG/1.1/DTD/svg11.dtd">
<svg version="1.1" id="Ebene_1" xmlns="http://www.w3.org/2000/svg" xmlns:xlink="http://www.w3.org/1999/xlink" x="0px" y="0px"
	 width="168.27px" height="125.968px" viewBox="0 0 168.27 125.968" enable-background="new 0 0 168.27 125.968"
	 xml:space="preserve">
<g>
	<path d="M32.207,93.639c-1.491-0.1-3.38-0.199-5.667-0.3c-2.287-0.098-4.871-0.149-7.752-0.149L8.201,93.339
		c-1.889,0.101-4.524,0.15-7.902,0.15c-0.199,0-0.298-0.3-0.298-0.895C0,91.997,0.099,91.7,0.298,91.7
		c3.378,0,5.838-0.248,7.381-0.745c1.541-0.499,2.609-1.468,3.206-2.907c0.597-1.44,0.895-3.655,0.895-6.637V12.375
		c0-2.983-0.274-5.168-0.821-6.561c-0.546-1.391-1.616-2.36-3.205-2.907c-1.591-0.546-4.026-0.82-7.306-0.82
		c-0.202,0-0.298-0.299-0.298-0.895c0-0.597,0.097-0.895,0.298-0.895l7.902,0.149c4.373,0.2,7.851,0.298,10.437,0.298
		c3.975,0,8-0.15,12.077-0.447C35.835,0.1,39.164,0,40.855,0c10.14,0,19.134,1.99,26.988,5.964
		c7.851,3.976,13.94,9.393,18.264,16.251c4.326,6.859,6.486,14.564,6.486,23.112c0,9.644-2.234,18.167-6.709,25.572
		c-4.473,7.405-10.488,13.122-18.041,17.149c-7.556,4.022-15.856,6.036-24.901,6.036C39.861,94.084,36.281,93.937,32.207,93.639z
		 M59.717,86.182c5.316-3.28,9.468-8.125,12.45-14.538c2.981-6.411,4.473-14.089,4.473-23.036c0-8.548-1.416-16.276-4.249-23.187
		c-2.834-6.907-6.836-12.375-12.004-16.401c-5.169-4.026-11.183-6.04-18.042-6.04c-4.174,0-7.405,0.25-9.691,0.746
		c-2.288,0.498-3.952,1.417-4.995,2.758c-1.044,1.341-1.565,3.407-1.565,6.188v67.097c0,4.078,1.044,6.984,3.131,8.723
		c2.087,1.74,6.162,2.607,12.226,2.607C48.31,91.101,54.398,89.462,59.717,86.182z"/>
</g>
<g>
	<g>
		<polygon fill="#87642A" points="106.73,100.253 111.084,109.573 117.52,92.106 113.142,82.85 		"/>
		<path fill="#87642A" d="M129.352,32.33l-5.814,0.149c-2.386,0.2-4.473,0.298-6.262,0.298c-3.184,0-5.368-0.075-6.562-0.225
			c-1.19-0.148-2.234-0.223-3.129-0.223c-0.3,0-0.449,0.297-0.449,0.895c0,0.596,0.149,0.894,0.449,0.894
			c2.98,0,4.472,1.491,4.472,4.474c0,2.386-0.895,5.916-2.684,10.586l-5.368,14.165l-8.052-16.999
			c-2.385-4.969-3.578-8.249-3.578-9.841c0-0.895,0.32-1.514,0.97-1.864c0.645-0.347,1.764-0.521,3.354-0.521
			c0.298,0,0.447-0.298,0.447-0.894c0-0.597-0.149-0.895-0.447-0.895c-1.591,0-2.885,0.051-3.875,0.149
			c-3.582,0.2-7.707,0.298-12.378,0.298c-2.187,0-4.375-0.098-6.561-0.298l-3.578-0.149c-0.298,0-0.447,0.297-0.447,0.895
			c0,0.596,0.149,0.894,0.447,0.894c2.087,0,3.9,0.846,5.442,2.535c1.54,1.691,3.206,4.376,4.995,8.052l16.252,34.592L86.262,107.03
			L57.784,46.345c-1.789-3.876-2.684-6.658-2.684-8.349c0-1.492,0.57-2.51,1.714-3.057c1.142-0.546,3.057-0.821,5.74-0.821
			c0.299,0,0.448-0.298,0.448-0.894c0-0.597-0.149-0.895-0.448-0.895c-2.088,0-3.827,0.051-5.218,0.149
			c-4.573,0.2-9.644,0.298-15.209,0.298c-2.785,0-5.27-0.098-7.455-0.298l-3.876-0.149c-0.298,0-0.448,0.297-0.448,0.895
			c0,0.596,0.15,0.894,0.448,0.894c2.881,0,5.043,0.671,6.486,2.014c1.44,1.341,3.206,4.201,5.293,8.573l37.723,80.666
			c0.098,0.397,0.646,0.597,1.642,0.597c0.992,0,1.54-0.199,1.64-0.597l15.657-41.153l3.597,7.699l6.394-17.348l-2.984-6.306
			l7.159-18.489c2.085-5.466,4.419-9.442,7.006-11.929c2.584-2.483,5.566-3.728,8.945-3.728c0.199,0,0.299-0.298,0.299-0.894
			C129.651,32.627,129.551,32.33,129.352,32.33z"/>
	</g>
	<path fill="#87642A" d="M167.97,32.33l-6.41,0.149c-2.586,0.2-4.872,0.298-6.858,0.298c-2.885,0-6.113-0.098-9.693-0.298
		l-6.559-0.149c-0.3,0-0.449,0.297-0.449,0.895c0,0.596,0.149,0.894,0.449,0.894c2.98,0,5.292,0.771,6.931,2.312
		c1.642,1.542,2.463,3.705,2.463,6.486c0,2.287-0.499,4.723-1.493,7.306l-21.769,56.808l-3.145-6.644l-6.457,17.521l3.488,7.463
		c0.1,0.397,0.646,0.597,1.642,0.597c0.992,0,1.539-0.199,1.639-0.597l28.928-75.596c1.985-5.069,4.473-8.947,7.455-11.63
		c2.981-2.684,6.262-4.026,9.839-4.026c0.2,0,0.3-0.298,0.3-0.894C168.27,32.627,168.17,32.33,167.97,32.33z"/>
</g>
</svg>
