<?xml version="1.0" encoding="utf-8"?>
<!-- Generator: Adobe Illustrator 16.0.0, SVG Export Plug-In . SVG Version: 6.00 Build 0)  -->
<!DOCTYPE svg PUBLIC "-//W3C//DTD SVG 1.1//EN" "http://www.w3.org/Graphics/SVG/1.1/DTD/svg11.dtd">
<svg version="1.1" id="Ebene_1" xmlns="http://www.w3.org/2000/svg" xmlns:xlink="http://www.w3.org/1999/xlink" x="0px" y="0px"
	 width="193.667px" height="169.333px" viewBox="0 0 193.667 169.333" enable-background="new 0 0 193.667 169.333"
	 xml:space="preserve">
<g>
	<path d="M93.842,43.502v54.291c-3.782,1.381-6.382,4.988-6.382,9.129c0,5.371,4.37,9.74,9.74,9.74c5.371,0,9.741-4.369,9.741-9.74
		c0-4.137-2.598-7.743-6.374-9.126V43.522l30.181,63.646l-17.651,46.245H81.306l-17.645-46.297L93.842,43.502 M100.144,37.96h-1.576
		V99.32c3.621,0.647,6.374,3.795,6.374,7.603c0,4.275-3.466,7.74-7.741,7.74c-4.274,0-7.74-3.465-7.74-7.74
		c0-3.811,2.758-6.959,6.382-7.604V37.96h-1.584l-32.77,69.069l18.44,48.383h34.545l18.447-48.33L100.144,37.96L100.144,37.96z"/>
	<g>
		<path fill="#F6F6F6" d="M124.155,166.006v-9.725c0-2.251-1.843-4.094-4.094-4.094H71.615c-2.251,0-4.094,1.843-4.094,4.094v9.725
			H124.155z"/>
		<path fill="#87642A" d="M125.155,167.006H66.521v-10.725c0-2.809,2.285-5.094,5.094-5.094h48.446c2.809,0,5.094,2.285,5.094,5.094
			V167.006z M68.521,165.006h54.634v-8.725c0-1.706-1.388-3.094-3.094-3.094H71.615c-1.706,0-3.094,1.388-3.094,3.094V165.006z"/>
	</g>
	<g>
		<g>
			<circle fill="#87642A" cx="5.11" cy="11.073" r="2.772"/>
		</g>
		<g>
			<circle fill="#87642A" cx="188.558" cy="11.073" r="2.771"/>
		</g>
		<g>
			<rect x="7.159" y="10.035" fill="#87642A" width="180.083" height="2"/>
		</g>
	</g>
	<g>
		<path d="M12.459,69.632l-1.919-0.564c0.178-0.604,4.5-14.959,17.357-29.537c11.867-13.456,33.524-29.496,69.303-29.496
			c35.783,0,57.241,16.043,68.941,29.502c12.675,14.58,16.817,28.938,16.988,29.542l-1.926,0.543
			c-0.04-0.145-4.22-14.594-16.629-28.838c-11.424-13.115-32.387-28.749-67.375-28.749c-35.033,0-56.208,15.672-67.803,28.819
			C16.832,55.101,12.501,69.489,12.459,69.632z"/>
	</g>
	<g>
		<g>
			<path fill="#F6F6F6" d="M97.204,18.743c-4.25,0-7.707-3.458-7.707-7.708s3.458-7.708,7.707-7.708
				c4.251,0,7.708,3.458,7.708,7.708S101.455,18.743,97.204,18.743z"/>
			<path fill="#1D1D1B" d="M97.204,19.743c-4.801,0-8.707-3.906-8.707-8.708s3.906-8.708,8.707-8.708
				c4.802,0,8.708,3.906,8.708,8.708S102.006,19.743,97.204,19.743z M97.204,4.327c-3.698,0-6.707,3.01-6.707,6.708
				c0,3.699,3.009,6.708,6.707,6.708c3.699,0,6.708-3.009,6.708-6.708C103.912,7.336,100.903,4.327,97.204,4.327z"/>
		</g>
	</g>
	<g>
		<path fill="#F6F6F6" d="M188.558,75.181c0,1.479-1.211,2.69-2.691,2.69h-7.398c-1.48,0-2.691-1.211-2.691-2.69v-7.399
			c0-1.479,1.211-2.69,2.691-2.69h7.398c1.48,0,2.691,1.211,2.691,2.69V75.181z"/>
		<path d="M185.866,78.872h-7.398c-2.035,0-3.691-1.655-3.691-3.69v-7.399c0-2.035,1.656-3.69,3.691-3.69h7.398
			c2.035,0,3.691,1.655,3.691,3.69v7.399C189.558,77.216,187.901,78.872,185.866,78.872z M178.468,66.091
			c-0.933,0-1.691,0.759-1.691,1.69v7.399c0,0.933,0.759,1.69,1.691,1.69h7.398c0.933,0,1.691-0.758,1.691-1.69v-7.399
			c0-0.932-0.759-1.69-1.691-1.69H178.468z"/>
	</g>
	<g>
		<path fill="#F6F6F6" d="M17.891,75.181c0,1.479-1.211,2.69-2.691,2.69H7.8c-1.479,0-2.69-1.211-2.69-2.69v-7.399
			c0-1.479,1.211-2.69,2.69-2.69H15.2c1.48,0,2.691,1.211,2.691,2.69V75.181z"/>
		<path d="M15.2,78.872H7.8c-2.035,0-3.69-1.655-3.69-3.69v-7.399c0-2.035,1.655-3.69,3.69-3.69H15.2
			c2.035,0,3.691,1.655,3.691,3.69v7.399C18.891,77.216,17.235,78.872,15.2,78.872z M7.8,66.091c-0.932,0-1.69,0.759-1.69,1.69
			v7.399c0,0.933,0.758,1.69,1.69,1.69H15.2c0.933,0,1.691-0.758,1.691-1.69v-7.399c0-0.932-0.758-1.69-1.691-1.69H7.8z"/>
	</g>
</g>
</svg>
