<?xml version="1.0" encoding="utf-8"?>
<!-- Generator: Adobe Illustrator 16.0.0, SVG Export Plug-In . SVG Version: 6.00 Build 0)  -->
<!DOCTYPE svg PUBLIC "-//W3C//DTD SVG 1.1//EN" "http://www.w3.org/Graphics/SVG/1.1/DTD/svg11.dtd">
<svg version="1.1" id="Ebene_1" xmlns="http://www.w3.org/2000/svg" xmlns:xlink="http://www.w3.org/1999/xlink" x="0px" y="0px"
	 width="186.596px" height="140.25px" viewBox="0 0 186.596 140.25" enable-background="new 0 0 186.596 140.25"
	 xml:space="preserve">
<g>
	<path fill="#87642A" d="M45.241,25.25H23.819c-2.163,0-3.921-1.759-3.921-3.921v-1.856c0-2.163,1.759-3.921,3.921-3.921h21.421
		c2.162,0,3.921,1.759,3.921,3.921v1.856C49.162,23.491,47.403,25.25,45.241,25.25z M23.819,17.512
		c-1.082,0-1.961,0.879-1.961,1.961v1.856c0,1.082,0.879,1.961,1.961,1.961h21.421c1.081,0,1.96-0.879,1.96-1.961v-1.856
		c0-1.082-0.879-1.961-1.96-1.961H23.819z"/>
</g>
<g>
	<path fill="#87642A" d="M143.1,18.668h-12.435c-2.163,0-3.922-1.759-3.922-3.921V12.89c0-2.162,1.759-3.921,3.922-3.921H143.1
		c2.161,0,3.92,1.759,3.92,3.921v1.857C147.02,16.909,145.261,18.668,143.1,18.668z M130.665,10.93c-1.082,0-1.961,0.879-1.961,1.96
		v1.857c0,1.081,0.879,1.96,1.961,1.96H143.1c1.08,0,1.96-0.879,1.96-1.96V12.89c0-1.081-0.88-1.96-1.96-1.96H130.665z"/>
</g>
<g>
	<path d="M168.798,138.979h-151c-9.189,0-16.666-7.478-16.666-16.665V39.955c0-9.189,7.476-16.665,16.666-16.665h151
		c9.189,0,16.666,7.476,16.666,16.665v82.359C185.464,131.501,177.987,138.979,168.798,138.979z M17.798,25.25
		c-8.108,0-14.705,6.597-14.705,14.705v82.359c0,8.107,6.596,14.704,14.705,14.704h151c8.108,0,14.705-6.597,14.705-14.704V39.955
		c0-8.108-6.597-14.705-14.705-14.705H17.798z"/>
</g>
<g>
	<path d="M159.159,25.25H80.614c-0.307,0-0.597-0.144-0.782-0.39c-0.185-0.245-0.245-0.563-0.161-0.859l5.94-20.903
		c0.12-0.421,0.505-0.712,0.943-0.712h66.663c0.438,0,0.823,0.291,0.943,0.712l5.939,20.903c0.085,0.296,0.025,0.614-0.159,0.859
		C159.756,25.106,159.466,25.25,159.159,25.25z M81.912,23.29h75.949l-5.384-18.943H87.295L81.912,23.29z"/>
</g>
<g>
	<circle fill="none" cx="118.566" cy="82.05" r="35.78"/>
	<path fill="#1D1D1B" d="M118.565,118.81c-20.27,0-36.76-16.491-36.76-36.76c0-20.271,16.49-36.762,36.76-36.762
		s36.761,16.491,36.761,36.762C155.326,102.318,138.835,118.81,118.565,118.81z M118.565,47.249
		c-19.188,0-34.799,15.612-34.799,34.801c0,19.188,15.61,34.798,34.799,34.798c19.189,0,34.8-15.61,34.8-34.798
		C153.365,62.861,137.755,47.249,118.565,47.249z"/>
</g>
<g>
	<circle fill="none" cx="118.566" cy="82.05" r="21.588"/>
	<path fill="#87642A" d="M118.565,104.618c-12.444,0-22.569-10.124-22.569-22.568c0-12.446,10.125-22.571,22.569-22.571
		s22.568,10.125,22.568,22.571C141.134,94.494,131.01,104.618,118.565,104.618z M118.565,61.439
		c-11.364,0-20.607,9.245-20.607,20.61c0,11.362,9.243,20.608,20.607,20.608c11.363,0,20.608-9.246,20.608-20.608
		C139.174,70.685,129.929,61.439,118.565,61.439z"/>
</g>
<g>
	<path d="M34.531,121.999c-0.542,0-0.981-0.438-0.981-0.98V42.474c0-0.542,0.439-0.98,0.981-0.98c0.541,0,0.98,0.438,0.98,0.98
		v78.545C35.511,121.561,35.072,121.999,34.531,121.999z"/>
</g>
</svg>
