<?xml version="1.0" encoding="utf-8"?>
<!-- Generator: Adobe Illustrator 16.0.0, SVG Export Plug-In . SVG Version: 6.00 Build 0)  -->
<!DOCTYPE svg PUBLIC "-//W3C//DTD SVG 1.1//EN" "http://www.w3.org/Graphics/SVG/1.1/DTD/svg11.dtd">
<svg version="1.1" id="Ebene_1" xmlns="http://www.w3.org/2000/svg" xmlns:xlink="http://www.w3.org/1999/xlink" x="0px" y="0px"
	 width="186.596px" height="173.461px" viewBox="0 0 186.596 173.461" enable-background="new 0 0 186.596 173.461"
	 xml:space="preserve">
<g>
	<path d="M94.917,82.964c-0.552,0-1-0.448-1-1V41.482c0-8.588,6.986-15.574,15.573-15.574s15.573,6.986,15.573,15.574v11.334
		c0,6.592,5.362,11.955,11.955,11.955c6.591,0,11.953-5.363,11.953-11.955V1c0-0.552,0.447-1,1-1s1,0.448,1,1v51.816
		c0,7.695-6.26,13.955-13.953,13.955c-7.695,0-13.955-6.26-13.955-13.955V41.482c0-7.485-6.09-13.574-13.573-13.574
		s-13.573,6.089-13.573,13.574v40.481C95.917,82.516,95.47,82.964,94.917,82.964z"/>
</g>
<g>
	<path d="M40.433,173.461l-0.661-0.004C15.981,173.152,0,149.297,0,127.208C0,101.708,20.747,80.96,46.249,80.96h94.805
		c25.111,0.003,45.542,20.75,45.542,46.248c0,11.418-3.995,22.948-10.961,31.636c-7.41,9.241-17.392,14.432-28.104,14.613
		l-0.485,0.004c-5.473,0-18.447-1.182-29.961-4.352c-7.072-1.945-15.167-2.974-23.408-2.974c-8.245,0-16.359,1.028-23.465,2.975
		C58.502,172.319,47.151,173.461,40.433,173.461z M46.249,82.96C21.85,82.96,2,102.81,2,127.208
		c0,21.135,15.188,43.959,37.797,44.249l0.635,0.004c6.588,0,17.733-1.124,29.25-4.28c7.276-1.992,15.573-3.045,23.994-3.045
		c8.418,0,16.695,1.053,23.939,3.046c11.324,3.117,24.062,4.279,29.43,4.279l0.451-0.004c22.191-0.377,37.099-23.184,37.099-44.249
		c0-24.396-19.533-44.245-43.542-44.248H46.249z"/>
</g>
<g>
	<path fill="#1D1D1B" d="M103.44,95.918h-15c-0.552,0-1-0.448-1-1c0-0.553,0.448-1,1-1h15c0.553,0,1,0.447,1,1
		C104.44,95.47,103.993,95.918,103.44,95.918z"/>
</g>
<g>
	<path d="M117.587,138.019c-5.909,0-10.717-4.808-10.717-10.717c0-5.908,4.808-10.715,10.717-10.715
		c5.908,0,10.715,4.807,10.715,10.715C128.302,133.211,123.495,138.019,117.587,138.019z M117.587,118.587
		c-4.807,0-8.717,3.909-8.717,8.715c0,4.807,3.91,8.717,8.717,8.717c4.806,0,8.715-3.91,8.715-8.717
		C126.302,122.497,122.393,118.587,117.587,118.587z"/>
</g>
<g>
	<path d="M162.927,138.019c-5.909,0-10.716-4.808-10.716-10.717c0-5.908,4.807-10.715,10.716-10.715
		c5.908,0,10.715,4.807,10.715,10.715C173.642,133.211,168.835,138.019,162.927,138.019z M162.927,118.587
		c-4.806,0-8.716,3.909-8.716,8.715c0,4.807,3.91,8.717,8.716,8.717s8.715-3.91,8.715-8.717
		C171.642,122.497,167.732,118.587,162.927,118.587z"/>
</g>
<g>
	<path fill="#87642A" d="M140.257,160.689c-5.909,0-10.716-4.808-10.716-10.717s4.807-10.716,10.716-10.716
		c5.908,0,10.715,4.807,10.715,10.716S146.165,160.689,140.257,160.689z M140.257,141.256c-4.807,0-8.716,3.91-8.716,8.716
		c0,4.807,3.909,8.717,8.716,8.717c4.805,0,8.715-3.91,8.715-8.717C148.972,145.167,145.062,141.256,140.257,141.256z"/>
</g>
<g>
	<path fill="#87642A" d="M140.257,115.348c-5.909,0-10.716-4.807-10.716-10.715s4.807-10.715,10.716-10.715
		c5.908,0,10.715,4.807,10.715,10.715S146.165,115.348,140.257,115.348z M140.257,95.918c-4.807,0-8.716,3.909-8.716,8.715
		s3.909,8.715,8.716,8.715c4.805,0,8.715-3.909,8.715-8.715S145.062,95.918,140.257,95.918z"/>
</g>
<g>
	<path fill="#87642A" d="M57.293,150.972H41.862c-0.552,0-1-0.447-1-1v-13.953H26.908c-0.552,0-1-0.447-1-1v-15.432
		c0-0.553,0.448-1,1-1h13.955v-13.954c0-0.553,0.448-1,1-1h15.431c0.552,0,1,0.447,1,1v13.954h13.954c0.552,0,1,0.447,1,1v15.432
		c0,0.553-0.448,1-1,1H58.293v13.953C58.293,150.525,57.846,150.972,57.293,150.972z M42.862,148.972h13.431v-13.953
		c0-0.553,0.448-1,1-1h13.954v-13.432H57.293c-0.552,0-1-0.447-1-1v-13.954H42.862v13.954c0,0.553-0.448,1-1,1H27.908v13.432h13.955
		c0.552,0,1,0.447,1,1V148.972z"/>
</g>
</svg>
